<?xml version="1.0" encoding="UTF-8" standalone="no"?>
<!-- Created with Inkscape (http://www.inkscape.org/) -->
<svg
   xmlns:dc="http://purl.org/dc/elements/1.1/"
   xmlns:cc="http://creativecommons.org/ns#"
   xmlns:rdf="http://www.w3.org/1999/02/22-rdf-syntax-ns#"
   xmlns:svg="http://www.w3.org/2000/svg"
   xmlns="http://www.w3.org/2000/svg"
   xmlns:sodipodi="http://sodipodi.sourceforge.net/DTD/sodipodi-0.dtd"
   xmlns:inkscape="http://www.inkscape.org/namespaces/inkscape"
   width="45"
   height="45"
   id="svg2"
   sodipodi:version="0.32"
   inkscape:version="0.46"
   sodipodi:docname="audacious.svg"
   inkscape:output_extension="org.inkscape.output.svg.inkscape"
   version="1.0">
  <defs
     id="defs4">
    <inkscape:perspective
       sodipodi:type="inkscape:persp3d"
       inkscape:vp_x="0 : 526.18109 : 1"
       inkscape:vp_y="0 : 1000 : 0"
       inkscape:vp_z="744.09448 : 526.18109 : 1"
       inkscape:persp3d-origin="372.04724 : 350.78739 : 1"
       id="perspective10" />
    <inkscape:perspective
       id="perspective2390"
       inkscape:persp3d-origin="372.04724 : 350.78739 : 1"
       inkscape:vp_z="744.09448 : 526.18109 : 1"
       inkscape:vp_y="0 : 1000 : 0"
       inkscape:vp_x="0 : 526.18109 : 1"
       sodipodi:type="inkscape:persp3d" />
    <filter
       inkscape:collect="always"
       id="filter3272">
      <feGaussianBlur
         inkscape:collect="always"
         stdDeviation="0.37678574"
         id="feGaussianBlur3274" />
    </filter>
  </defs>
  <sodipodi:namedview
     id="base"
     pagecolor="#ffffff"
     bordercolor="#666666"
     borderopacity="1.0"
     gridtolerance="10000"
     guidetolerance="10"
     objecttolerance="10"
     inkscape:pageopacity="0.0"
     inkscape:pageshadow="2"
     inkscape:zoom="15.839192"
     inkscape:cx="23.631883"
     inkscape:cy="22.861978"
     inkscape:document-units="px"
     inkscape:current-layer="layer1"
     showgrid="false"
     inkscape:window-width="1280"
     inkscape:window-height="943"
     inkscape:window-x="-4"
     inkscape:window-y="-5" />
  <metadata
     id="metadata7">
    <rdf:RDF>
      <cc:Work
         rdf:about="">
        <dc:format>image/svg+xml</dc:format>
        <dc:type
           rdf:resource="http://purl.org/dc/dcmitype/StillImage" />
      </cc:Work>
    </rdf:RDF>
  </metadata>
  <g
     inkscape:label="Layer 1"
     inkscape:groupmode="layer"
     id="layer1"
     transform="translate(-240.80357,-315.84432)">
    <g
       id="g3302">
      <path
         transform="translate(20.357144,-0.5357154)"
         d="M 262.5,338.88004 A 19.553574,19.553574 0 1 1 223.39285,338.88004 A 19.553574,19.553574 0 1 1 262.5,338.88004 z"
         sodipodi:ry="19.553574"
         sodipodi:rx="19.553574"
         sodipodi:cy="338.88004"
         sodipodi:cx="242.94643"
         id="path3198"
         style="fill:#000000;fill-opacity:1;fill-rule:evenodd;stroke:none;stroke-width:0.40000001;stroke-linecap:butt;stroke-linejoin:round;stroke-miterlimit:4;stroke-dasharray:none;stroke-dashoffset:0;stroke-opacity:1;filter:url(#filter3272)"
         sodipodi:type="arc" />
      <g
         id="g3298">
        <path
           sodipodi:type="arc"
           style="fill:#d9d9d9;fill-opacity:1;fill-rule:evenodd;stroke:none;stroke-width:0.40000001;stroke-linecap:butt;stroke-linejoin:round;stroke-miterlimit:4;stroke-dasharray:none;stroke-dashoffset:0;stroke-opacity:1"
           id="path3192"
           sodipodi:cx="249.10715"
           sodipodi:cy="339.05862"
           sodipodi:rx="15.982142"
           sodipodi:ry="15.982142"
           d="M 265.08929,339.05862 A 15.982142,15.982142 0 1 1 233.125,339.05862 A 15.982142,15.982142 0 1 1 265.08929,339.05862 z"
           transform="translate(14.196423,-0.7143043)" />
        <path
           style="fill:#0a0a0a;fill-opacity:1;fill-rule:evenodd;stroke:none;stroke-width:1px;stroke-linecap:butt;stroke-linejoin:miter;stroke-opacity:1"
           d="M 257.25893,330.74106 C 256.77081,331.22146 256.26665,333.44105 257.87054,333.9732 C 258.98515,334.11018 260.3801,333.70022 261.43185,333.66664 C 262.99161,333.61683 264.01119,333.96649 263.97768,334.68302 C 263.92829,335.73914 259.25967,334.98823 257.14733,337.2366 C 256.21236,338.23176 255.35011,339.37771 255.42411,341.56248 C 255.47769,343.16043 257.75081,346.35642 260.24106,346.51784 C 261.41152,346.59303 263.22342,346.56022 263.59491,345.31088 C 263.69108,344.98742 265.96716,344.9474 265.99121,345.43094 C 266.04168,346.4613 266.59136,346.11112 268.48661,346.14731 C 271.04688,346.19535 269.92171,345.34279 270.13839,344.24105 C 270.32904,343.27172 270.61809,341.31653 270.61893,339.19311 C 270.62013,336.16704 270.40997,332.75611 269.08929,330.99106 C 267.41206,328.74949 259.48804,328.54717 257.25893,330.74106 z M 265.13378,340.20151 C 265.24212,341.72707 263.86711,342.10759 262.99856,341.95854 C 261.84738,341.76099 261.49554,340.15273 262.02232,339.48213 C 262.57073,338.78399 265.0272,338.70071 265.13378,340.20151 z"
           id="path2396"
           sodipodi:nodetypes="ccsssssssssssscsss" />
      </g>
    </g>
  </g>
</svg>
