<?xml version="1.0" encoding="UTF-8" standalone="no"?>
<!-- Created with Inkscape (http://www.inkscape.org/) -->
<svg
   xmlns:dc="http://purl.org/dc/elements/1.1/"
   xmlns:cc="http://web.resource.org/cc/"
   xmlns:rdf="http://www.w3.org/1999/02/22-rdf-syntax-ns#"
   xmlns:svg="http://www.w3.org/2000/svg"
   xmlns="http://www.w3.org/2000/svg"
   xmlns:xlink="http://www.w3.org/1999/xlink"
   xmlns:sodipodi="http://sodipodi.sourceforge.net/DTD/sodipodi-0.dtd"
   xmlns:inkscape="http://www.inkscape.org/namespaces/inkscape"
   width="48px"
   height="48px"
   id="svg2782"
   sodipodi:version="0.32"
   inkscape:version="0.45.1"
   sodipodi:docbase="C:\Documents and Settings\Administrator\桌面"
   sodipodi:docname="Audacity.svg"
   inkscape:output_extension="org.inkscape.output.svg.inkscape">
  <sodipodi:namedview
     id="base"
     pagecolor="#ffffff"
     bordercolor="#666666"
     borderopacity="1.0"
     inkscape:pageopacity="0.0"
     inkscape:pageshadow="2"
     inkscape:zoom="7.7529502"
     inkscape:cx="34.190982"
     inkscape:cy="29.381224"
     inkscape:current-layer="layer1"
     showgrid="true"
     inkscape:grid-bbox="true"
     inkscape:document-units="px"
     inkscape:window-width="1280"
     inkscape:window-height="740"
     inkscape:window-x="0"
     inkscape:window-y="22" />
  <defs
     id="defs2784">
    <linearGradient
       id="linearGradient10707">
      <stop
         id="stop10709"
         offset="0"
         style="stop-color:#ffffff;stop-opacity:1;" />
      <stop
         id="stop10711"
         offset="1"
         style="stop-color:#ffffff;stop-opacity:0;" />
    </linearGradient>
    <filter
       inkscape:collect="always"
       x="-0.12418137"
       width="1.2483627"
       y="-0.086103505"
       height="1.172207"
       id="filter3338">
      <feGaussianBlur
         inkscape:collect="always"
         stdDeviation="0.22176256"
         id="feGaussianBlur3340" />
    </filter>
    <filter
       inkscape:collect="always"
       id="filter5746">
      <feGaussianBlur
         inkscape:collect="always"
         stdDeviation="0.61997365"
         id="feGaussianBlur5748" />
    </filter>
    <filter
       inkscape:collect="always"
       id="filter7699">
      <feGaussianBlur
         inkscape:collect="always"
         stdDeviation="0.26542242"
         id="feGaussianBlur7701" />
    </filter>
    <linearGradient
       inkscape:collect="always"
       xlink:href="#linearGradient10707"
       id="linearGradient9710"
       gradientUnits="userSpaceOnUse"
       gradientTransform="matrix(1.2224457,0,0,1.2224457,-50.640749,-6.2146007)"
       x1="3.5097475"
       y1="22.810303"
       x2="8.2490902"
       y2="28.935303" />
    <filter
       inkscape:collect="always"
       id="filter3182">
      <feGaussianBlur
         inkscape:collect="always"
         stdDeviation="1.0503269"
         id="feGaussianBlur3184" />
    </filter>
  </defs>
  <metadata
     id="metadata2787">
    <rdf:RDF>
      <cc:Work
         rdf:about="">
        <dc:format>image/svg+xml</dc:format>
        <dc:type
           rdf:resource="http://purl.org/dc/dcmitype/StillImage" />
      </cc:Work>
    </rdf:RDF>
  </metadata>
  <g
     inkscape:groupmode="layer"
     id="layer3"
     inkscape:label="shadow#1" />
  <g
     inkscape:groupmode="layer"
     id="layer2"
     inkscape:label="shadow" />
  <g
     inkscape:label="Layer 1"
     id="layer1"
     inkscape:groupmode="layer">
    <g
       id="g7064">
      <path
         transform="matrix(0.9700879,0,0,0.9700879,47.352417,2.8207389)"
         sodipodi:nodetypes="csssccssssssssssccssssc"
         style="fill:#edd400;fill-opacity:1;stroke:#89898a;stroke-width:2.06166884;stroke-miterlimit:4;stroke-dasharray:none;stroke-opacity:0.62941176;filter:url(#filter3182)"
         d="M -25.906214,41.504268 C -26.215589,41.391175 -26.840525,40.960604 -27.294962,40.547448 C -28.038293,39.871638 -28.294055,39.839778 -29.843589,40.229954 C -31.764577,40.713663 -34.21094,40.277478 -35.36793,39.244964 C -35.8931,38.776297 -36.125054,38.75515 -36.581904,39.134302 C -40.023102,38.70056 -36.749182,23.460072 -34.806031,23.381866 C -34.506236,20.63017 -29.677852,15.362263 -28.716256,15.362263 C -28.537944,15.362263 -27.97834,16.273792 -27.472692,16.737854 C -26.967044,17.201916 -26.491435,17.412854 -26.415785,17.206604 C -26.00208,16.078698 -24.723522,14.394104 -24.281179,14.394104 C -24.000097,14.394104 -23.471203,15.056983 -23.10586,15.867169 C -22.678325,16.815272 -22.038729,17.507108 -21.311123,17.808492 C -20.137597,18.294583 -19.845622,18.119622 -18.801961,16.30492 C -18.176469,15.217325 -17.39412,16.18704 -17.13784,18.367583 C -16.85866,20.742966 -16.424111,21.519104 -15.373346,21.519104 C -14.993277,21.519104 -14.110098,22.021513 -13.410728,22.635569 C -12.711357,23.249625 -12.030485,23.643375 -11.897679,23.510569 C -10.677092,26.667195 -10.541228,28.942032 -11.886696,36.413622 C -12.367531,35.932787 -14.022515,37.478243 -14.687126,39.02872 C -15.337362,40.545659 -15.470439,40.644104 -16.870756,40.644104 C -17.690914,40.644104 -18.476066,40.459462 -18.615539,40.23379 C -18.902264,39.769859 -19.533501,39.887579 -22.683174,40.992359 C -25.040571,41.819242 -25.043371,41.819684 -25.906214,41.504268 z "
         id="path4648" />
      <path
         sodipodi:nodetypes="cscccssssccssssssc"
         id="path2790"
         d="M 24.291747,3.3397324 C 15.838804,3.2735814 7.9469673,8.5034011 6.5412671,16.483686 C 6.2819307,17.955964 6.0506449,18.622911 5.2821501,19.523993 C 2.2162714,21.041562 -4.7008778e-007,25.104104 5.0000016e-007,29.873321 C 0.17343476,34.631639 3.2325463,41.765714 8.9366605,40.898272 C 9.0581077,40.581789 9.1496789,34.797778 9.1516317,28.061421 C 9.1551718,15.861862 9.1627281,15.823767 10.042227,13.934742 C 12.620963,8.3960124 20.007932,5.0277443 26.932822,6.1957784 C 31.984936,7.0479274 36.340676,10.0183 38.295585,13.996162 C 39.180853,15.797521 39.286351,17.149712 39.339731,22.65643 L 39.385449,41.003605 C 44.607766,41.003605 48,35.643185 48,29.8119 C 47.999999,26.222016 46.624776,23.060988 44.52975,21.151632 C 44.497846,21.122555 44.469855,21.087989 44.43762,21.059501 C 44.135394,20.689835 43.850228,20.343809 43.547025,20.076776 C 42.19518,18.886201 41.965642,18.484814 41.735125,16.637237 C 41.157176,12.005075 37.672413,7.6328536 32.706334,5.2744733 C 29.984326,3.9817962 27.109394,3.3617827 24.291747,3.3397324 z "
         style="fill:#0000a5;fill-opacity:1;fill-rule:nonzero;stroke:#0a1887;stroke-width:0;stroke-linecap:butt;stroke-linejoin:miter;stroke-miterlimit:4;stroke-dasharray:none;stroke-dashoffset:0;stroke-opacity:1" />
      <path
         transform="matrix(0.9700879,0,0,0.9700879,47.352417,2.8207389)"
         id="path3365"
         d="M -24.047783,14.52048 C -24.079222,14.540406 -24.134359,14.641579 -24.172783,14.80173 C -24.74673,17.193961 -25.941869,28.251195 -26.391533,30.73923 C -26.421511,30.814643 -26.462487,30.920062 -26.485283,30.95798 C -26.532732,31.036906 -26.593224,30.979369 -26.672783,30.80173 C -26.679194,30.787416 -26.697446,30.754935 -26.704033,30.73923 C -27.268531,27.802739 -28.466897,13.736761 -28.766533,17.14548 C -29.104475,20.989971 -29.512157,28.00236 -29.829033,30.08298 C -30.144949,32.15729 -30.969727,16.67044 -31.391533,19.77048 C -31.814123,22.876289 -32.007438,28.725464 -32.391533,30.14548 C -32.756178,31.493593 -33.176086,22.185788 -33.391533,21.86423 C -33.606978,21.542672 -33.96051,28.154357 -34.204033,29.02048 C -34.411702,29.759083 -34.603472,27.923585 -34.891533,26.48923 C -35.109339,25.404696 -35.314717,28.534714 -35.454033,30.70798 C -35.499275,31.028837 -35.556724,31.490346 -35.579033,31.58298 C -35.611261,31.716796 -35.687334,31.284033 -35.797783,30.73923 C -35.982242,28.735329 -36.310436,25.981027 -36.922783,26.48923 C -36.91498,27.602198 -36.96008,29.118202 -37.047783,30.70798 C -37.256193,32.427116 -37.630283,34.425114 -37.641533,35.08298 C -37.536541,35.112482 -37.432629,35.031496 -37.329033,34.92673 C -37.489159,37.261232 -37.634505,39.366519 -37.641533,40.27048 C -37.030672,40.648015 -36.391532,35.112664 -36.391533,34.55173 C -36.391533,33.990795 -35.02424,41.424817 -34.891533,38.30173 C -34.758824,35.133039 -34.63412,32.678556 -33.954033,38.27048 C -33.27872,43.823161 -33.473978,25.987011 -32.329033,35.89548 C -31.179477,45.843877 -31.091512,36.523876 -31.079033,33.36423 C -31.066555,30.158983 -29.519267,42.697262 -29.079033,37.64548 C -28.6388,32.548094 -28.711713,32.37075 -28.329033,30.92673 C -27.558873,35.070242 -27.08167,36.239419 -26.672783,38.73923 C -26.263897,41.239042 -26.15906,42.115797 -25.704033,35.39548 C -25.249005,28.720766 -24.962378,35.060013 -24.797783,38.20798 C -24.633189,41.401551 -24.375059,43.092539 -23.235283,35.95798 C -22.0842,29.379417 -22.006978,32.869702 -21.797783,35.98923 C -21.588404,39.111471 -21.467244,42.517147 -20.891533,39.58298 C -20.315823,36.648813 -19.502495,31.627355 -19.391533,31.89548 C -18.664607,33.652003 -18.534382,37.691764 -18.016533,38.48923 C -17.800845,37.934546 -17.521675,32.940829 -16.485283,32.14548 C -16.129024,31.872079 -16.046669,33.977064 -15.766533,35.89548 C -15.492918,37.769234 -15.202738,38.585205 -14.891533,36.23923 C -14.580329,33.893254 -14.040926,31.318742 -13.891533,31.92673 C -13.752684,32.49181 -13.216976,35.564674 -13.016533,35.36423 C -12.739122,35.086816 -12.627666,31.786972 -11.985283,33.39548 C -11.145949,35.497147 -10.933979,33.843278 -11.016533,31.67673 C -11.001777,31.400274 -10.994578,31.07668 -11.047783,30.73923 C -11.056229,30.685662 -11.069198,30.636572 -11.079033,30.58298 C -11.208415,28.906464 -11.452119,27.249184 -11.735283,26.86423 C -11.917692,27.586864 -11.841295,30.20798 -12.235283,30.20798 C -12.629271,30.20798 -12.425523,22.767203 -12.891533,24.20798 C -13.362051,25.662695 -13.360193,27.537616 -13.860283,29.36423 C -14.1795,27.71713 -14.334379,21.917751 -14.829033,22.80173 C -15.323688,23.685709 -15.657814,27.74337 -16.735283,29.39548 C -17.216914,26.694632 -17.041018,25.471479 -17.266533,21.98923 C -17.492048,18.506981 -18.046274,14.926114 -18.297783,17.42673 C -18.548795,19.922398 -18.681516,28.216165 -19.110283,25.70798 C -19.539052,23.199795 -19.529813,32.193865 -20.079033,28.39548 C -20.629148,24.590898 -20.999849,17.190888 -21.516533,18.92673 C -22.033217,20.662571 -22.906609,29.301849 -23.391533,29.02048 C -23.846149,28.756696 -23.576204,14.221583 -24.047783,14.52048 z "
         style="fill:#fe0a00;fill-opacity:0.95294118;filter:url(#filter7699)" />
      <path
         transform="matrix(0.7313633,-8.3370668e-2,8.3370668e-2,0.7313633,34.814735,4.3095632)"
         id="path9728"
         d="M -41.885808,18 C -46.216479,20.239512 -46.449295,22.767675 -47.135808,25.5625 C -47.135808,25.5625 -44.405352,21.243131 -42.010808,20.09375 L -41.885808,18 z "
         style="fill:url(#linearGradient9710);fill-opacity:1;fill-rule:evenodd;stroke:none;stroke-width:0.62682056px;stroke-linecap:butt;stroke-linejoin:miter;stroke-opacity:1;filter:url(#filter3338)" />
      <path
         id="path3783"
         d="M 11.071957,18.369812 L 11.071957,41.000001"
         style="fill:#0000a5;fill-opacity:1;fill-rule:evenodd;stroke:#0a1887;stroke-width:2.10400009;stroke-linecap:round;stroke-linejoin:miter;stroke-miterlimit:4;stroke-dasharray:none;stroke-opacity:1" />
      <path
         id="path3785"
         d="M 36.982642,18.228665 L 36.982642,40.858851"
         style="fill:#0000a5;fill-opacity:1;fill-rule:evenodd;stroke:#0a1887;stroke-width:2.10405135;stroke-linecap:round;stroke-linejoin:miter;stroke-miterlimit:4;stroke-dasharray:none;stroke-opacity:1" />
      <path
         transform="matrix(0.9700879,0,0,0.9700879,47.352417,2.8207389)"
         sodipodi:nodetypes="cssssssssssssssssssssc"
         style="fill:#141258;filter:url(#filter5746)"
         d="M -42.384962,38.369438 C -44.357379,37.040227 -46.917577,34.413386 -45.196882,35.334273 C -43.727171,36.120839 -43.125389,35.273319 -43.112092,28.802783 C -43.099632,22.739542 -43.060634,22.423917 -41.98847,19.709033 C -41.282588,17.921631 -40.877146,16.213134 -40.876082,15.021533 C -40.872836,11.385665 -37.58657,6.7508902 -33.575388,4.400181 C -30.516844,2.6077549 -27.814504,1.8903347 -24,1.858097 C -14.340752,1.7764633 -6.950258,7.2361612 -6.132773,15.057441 C -5.917598,17.116117 -5.766664,17.451357 -4.838974,17.931083 C -3.524078,18.611043 -1.7755342,20.22805 -0.69430016,22.65491 C -0.03920916,24.125284 0.14529084,25.257233 0.16134484,27.904494 C 0.18045484,31.055151 0.08880484,31.471803 -1.2174142,34.172579 C -2.6593712,37.154016 -4.547483,38.819454 -6.46875,39.29891 C -7.799303,39.63095 -7.784138,39.199036 -6.387923,36.997438 C -4.678106,34.301335 -3.2047192,30.564313 -3.2059342,27.529494 C -3.2072022,24.35881 -5.051944,18.773316 -6.202808,17.387251 C -6.64797,16.851113 -7.129545,15.660248 -7.272971,14.740884 C -7.684436,12.103441 -8.73519,10.152147 -10.881819,8.0391112 C -13.557076,5.4057198 -17.312964,3.5915681 -21.214094,3.048463 C -28.334872,2.0571269 -35.696261,5.414628 -38.684593,11.01669 C -39.546039,12.631596 -39.566016,12.646055 -39.75,25.704202 C -39.958214,40.482015 -39.871143,40.0635 -42.384962,38.369438 z "
         id="path3357" />
    </g>
  </g>
</svg>
