<?xml version="1.0" encoding="UTF-8" standalone="no"?>
<!-- Generator: Adobe Illustrator 13.0.0, SVG Export Plug-In . SVG Version: 6.00 Build 14948)  -->

<svg
   xmlns:dc="http://purl.org/dc/elements/1.1/"
   xmlns:cc="http://creativecommons.org/ns#"
   xmlns:rdf="http://www.w3.org/1999/02/22-rdf-syntax-ns#"
   xmlns:svg="http://www.w3.org/2000/svg"
   xmlns="http://www.w3.org/2000/svg"
   xmlns:sodipodi="http://sodipodi.sourceforge.net/DTD/sodipodi-0.dtd"
   xmlns:inkscape="http://www.inkscape.org/namespaces/inkscape"
   version="1.1"
   id="Layer_1"
   x="0px"
   y="0px"
   width="47.0802"
   height="47.0802"
   viewBox="0 0 47.080203 47.0802"
   enable-background="new 0 0 66.937 68.624"
   xml:space="preserve"
   inkscape:version="0.47 r22583"
   sodipodi:docname="Adobe_Flash_Player.svg"><metadata
   id="metadata28"><rdf:RDF><cc:Work
       rdf:about=""><dc:format>image/svg+xml</dc:format><dc:type
         rdf:resource="http://purl.org/dc/dcmitype/StillImage" /></cc:Work></rdf:RDF></metadata><defs
   id="defs26"><inkscape:perspective
     sodipodi:type="inkscape:persp3d"
     inkscape:vp_x="0 : 34.312 : 1"
     inkscape:vp_y="0 : 1000 : 0"
     inkscape:vp_z="66.936996 : 34.312 : 1"
     inkscape:persp3d-origin="33.468498 : 22.874667 : 1"
     id="perspective30" /></defs><sodipodi:namedview
   pagecolor="#ffffff"
   bordercolor="#666666"
   borderopacity="1"
   objecttolerance="10"
   gridtolerance="10"
   guidetolerance="10"
   inkscape:pageopacity="0"
   inkscape:pageshadow="2"
   inkscape:window-width="640"
   inkscape:window-height="483"
   id="namedview24"
   showgrid="false"
   inkscape:zoom="3.43903"
   inkscape:cx="23.812598"
   inkscape:cy="25.2891"
   inkscape:window-x="0"
   inkscape:window-y="0"
   inkscape:window-maximized="0"
   inkscape:current-layer="Layer_1" />
<radialGradient
   id="SVGID_1_"
   cx="10.3223"
   cy="11.6318"
   r="47.266499"
   gradientUnits="userSpaceOnUse"
   gradientTransform="translate(-9.6559003,-12.520902)">
	<stop
   offset="0.0056"
   style="stop-color:#FBB7D4"
   id="stop4" />
	<stop
   offset="0.6742"
   style="stop-color:#E6360B"
   id="stop6" />
	<stop
   offset="1"
   style="stop-color:#891600"
   id="stop8" />
</radialGradient>
<rect
   x="0.2221"
   y="0.22209792"
   width="46.636002"
   height="46.636002"
   id="rect10"
   style="fill:url(#SVGID_1_);stroke:#891600;stroke-width:0.44420001" />
<g
   id="g12"
   transform="translate(-9.6559003,-12.520902)">
	<path
   clip-rule="evenodd"
   d="m 32.895,24.2 c -0.001,0.001 -0.001,0.002 -0.002,0.003 -1.228,1.544 -2.27,3.297 -3.099,5.21 l -2.245,5.476 c -0.005,0.013 -0.01,0.025 -0.015,0.039 -0.714,2.019 -1.393,3.686 -1.96,4.823 -0.004,0.009 -0.009,0.018 -0.013,0.026 -0.709,1.554 -1.354,2.698 -1.97,3.498 -0.742,0.921 -1.512,1.559 -2.411,1.993 -0.996,0.467 -2.121,0.695 -3.43,0.695 -0.468,0 -0.847,0.379 -0.847,0.846 v 6.953 c 0,0.469 0.379,0.848 0.847,0.848 5.167,0 9.405,-2 12.597,-5.945 0.938,-1.238 1.763,-2.566 2.537,-4.08 0.008,-0.016 0.016,-0.031 0.021,-0.047 0,0 1.332,-3.043 1.678,-3.834 0.958,0 7.417,0 7.417,0 0.467,0 0.846,-0.379 0.846,-0.847 v -6.919 c 0,-0.468 -0.379,-0.847 -0.846,-0.847 0,0 -2.438,0 -3.923,0 0.312,-0.626 0.623,-1.188 0.938,-1.682 0.565,-0.864 1.119,-1.515 1.643,-1.928 0.009,-0.007 0.018,-0.014 0.026,-0.021 0.647,-0.555 1.304,-0.936 2.066,-1.2 0.833,-0.289 1.73,-0.428 2.742,-0.428 0.468,0 0.847,-0.379 0.847,-0.847 V 19.1 c 0,-0.467 -0.379,-0.846 -0.847,-0.846 -5.194,-0.001 -9.433,1.999 -12.597,5.946 z"
   id="path14"
   style="fill:#ffffff;fill-rule:evenodd" />
	<path
   d="m 45.494,17.406 c -5.465,0 -9.927,2.107 -13.259,6.264 -10e-4,0.002 -0.003,0.004 -0.004,0.006 -1.274,1.603 -2.355,3.419 -3.213,5.4 -0.004,0.01 -0.009,0.021 -0.013,0.031 l -2.238,5.461 c -0.01,0.025 -0.021,0.051 -0.03,0.077 -0.888,2.509 -1.534,3.955 -1.92,4.726 -0.008,0.019 -0.017,0.035 -0.025,0.054 -0.677,1.482 -1.285,2.567 -1.857,3.317 -0.667,0.824 -1.34,1.384 -2.115,1.76 -0.888,0.414 -1.892,0.615 -3.068,0.615 -0.935,0 -1.693,0.758 -1.693,1.691 v 6.953 c 0,0.936 0.758,1.693 1.693,1.693 5.435,0 9.895,-2.105 13.254,-6.258 0.012,-0.014 0.022,-0.028 0.034,-0.043 0.952,-1.258 1.802,-2.626 2.599,-4.186 0.016,-0.031 0.03,-0.061 0.044,-0.092 l 1.456,-3.328 H 42 c 0.935,0 1.693,-0.757 1.693,-1.692 v -6.919 c 0,-0.935 -0.758,-1.693 -1.693,-1.693 h -2.505 c 0.077,-0.129 0.154,-0.254 0.232,-0.376 -0.002,0.004 -0.004,0.007 -0.007,0.011 0.52,-0.794 1.012,-1.378 1.464,-1.735 0.017,-0.014 0.035,-0.028 0.051,-0.043 0.564,-0.483 1.135,-0.814 1.793,-1.043 0.742,-0.256 1.548,-0.381 2.465,-0.381 0.936,0 1.693,-0.758 1.693,-1.693 v -6.885 c 10e-4,-0.934 -0.757,-1.692 -1.692,-1.692 l 0,0 z M 17.75,46.809 c 1.458,0 2.712,-0.271 3.797,-0.779 0.984,-0.475 1.866,-1.187 2.714,-2.238 0.679,-0.882 1.357,-2.104 2.07,-3.662 0.542,-1.086 1.221,-2.715 2.001,-4.919 L 30.57,29.75 c 0.882,-2.035 1.934,-3.697 2.985,-5.02 3.018,-3.765 6.987,-5.63 11.938,-5.63 v 6.885 l 0,0 0,0 c -1.153,0 -2.137,0.169 -3.019,0.475 -0.881,0.305 -1.627,0.747 -2.34,1.357 -0.644,0.509 -1.254,1.255 -1.831,2.137 -0.542,0.848 -1.051,1.832 -1.56,2.985 h 1.693 l 0,0 h 0.167 l 0,0 H 42 v 6.919 l 0,0 0,0 H 34.029 L 32.13,44.2 c -0.78,1.525 -1.594,2.814 -2.442,3.935 -3.019,3.73 -6.987,5.629 -11.938,5.629 v -6.955 l 0,0 0,0 z"
   id="path16"
   style="fill:#b12401" />
</g>
<g
   id="g18"
   transform="translate(-9.6559003,-12.520902)">
	<path
   d="m 38.126,53.828 h -0.835 v -3.292 h -1.208 v -0.707 h 3.252 v 0.707 h -1.208 v 3.292 z"
   id="path20"
   style="fill:#ffffff" />
	<path
   d="m 43.667,53.828 h -0.779 v -3.342 h -0.011 l -0.746,3.342 h -0.818 l -0.729,-3.342 h -0.011 v 3.342 h -0.779 v -3.999 h 1.219 l 0.724,3.151 h 0.011 l 0.712,-3.151 h 1.208 v 3.999 z"
   id="path22"
   style="fill:#ffffff" />
</g>
</svg>